<svg width="99" height="72" viewBox="0 0 99 72" fill="none" xmlns="http://www.w3.org/2000/svg">
<path d="M58.2362 37.3954C57.8676 37.5577 57.5365 37.7044 57.205 37.8497C55.9057 38.4187 54.5904 38.9431 53.2149 39.2986C51.1272 39.8381 49.0185 40.0074 46.8696 39.7498C44.8643 39.5098 42.9513 38.9596 41.0937 38.1823C38.3988 37.0541 36.0221 35.4571 34.0342 33.3008C32.4523 31.5853 31.2665 29.6148 30.4081 27.442C29.7262 25.7167 29.2424 23.9427 29.0819 22.0881C28.9373 20.4162 28.9758 18.7489 29.2648 17.0931C29.7728 14.1807 30.8549 11.4973 32.5081 9.05634C33.7222 7.26393 35.2154 5.73182 36.9248 4.40486C38.6764 3.04571 40.5824 1.97126 42.6536 1.20682C45.1789 0.2745 47.7865 -0.152795 50.4851 0.0491234C52.4187 0.194008 54.2818 0.617621 56.0438 1.43818C58.2824 2.48089 60.3415 3.81198 62.231 5.40572C63.1409 6.17291 63.8704 7.10706 64.6083 8.03756C65.631 9.32632 66.511 10.7007 67.2149 12.1854C67.8883 13.6062 68.5045 15.0601 68.7319 16.6267C68.8919 17.7223 68.9737 18.8377 68.9857 19.9453C69.0167 22.8269 68.988 25.7093 68.9857 28.5914C68.9827 32.4927 68.9851 36.3945 68.9791 40.2958C68.9767 41.8164 68.5027 43.1866 67.6137 44.4091C66.9146 45.3709 65.9092 45.8 64.7767 45.9403C63.6024 46.0856 62.4507 45.9813 61.3642 45.4528C60.2961 44.9335 59.5524 44.1019 59.0411 43.0413C58.4141 41.7405 58.2444 40.3501 58.2367 38.927C58.2339 38.4307 58.2362 36.9125 58.2362 36.3725V37.3954ZM58.2362 36.3725L58.2979 32.9863C58.3194 28.5946 58.3226 24.203 58.3295 19.8114C58.3309 19.0221 58.3295 18.2329 58.1301 17.4592C57.7496 15.9832 57.1341 14.6204 56.1024 13.4926C55.3075 12.6233 54.3298 11.9688 53.2867 11.4361C52.6867 11.1298 52.0611 10.8304 51.4121 10.6722C49.1704 10.1253 46.9922 10.3704 44.8721 11.2972C42.3527 12.3984 40.7617 14.3007 39.9303 16.899C39.5114 18.208 39.3651 19.5409 39.4698 20.9121C39.6193 22.866 40.3524 24.5604 41.6589 26.0023C42.7588 27.2161 43.6691 27.9181 45.1824 28.5413C46.8497 29.2285 49.4297 28.9847 51.1863 28.5413L58.2362 36.3725Z" fill="white"/>
<path d="M10 72H7.16981V66.8327C6.5849 67.6906 5.64151 68.1392 4.5283 68.1392C2.4151 68.1392 0 66.5405 0 63.1863C0 60.0863 2.07547 58 5.03774 58C7.88678 58 10 59.9304 10 63.1668V72ZM5.01887 65.4094C6.30188 65.4094 7.16981 64.4537 7.16981 63.0696C7.16981 61.6849 6.30188 60.7297 5.01887 60.7297C3.73585 60.7297 2.86792 61.6849 2.86792 63.0696C2.86792 64.4537 3.73585 65.4094 5.01887 65.4094Z" fill="white"/>
<path d="M17.5 68C14.8073 68 13 66.3434 13 63.0494V58H15.7664V63.0494C15.7664 64.588 16.4672 65.2388 17.5 65.2388C18.5327 65.2388 19.2336 64.588 19.2336 63.0494V58H22V63.0494C22 66.3236 20.1926 68 17.5 68Z" fill="white"/>
<path d="M28.9604 68C26.6774 68 24 66.4233 24 63.1151C24 60.0576 26.283 58 29.5415 58C32.7585 58 35 59.9805 35 63.0958V67.7499H32.1358V66.1732C31.5962 67.3461 30.434 68 28.9604 68ZM29.5207 65.3077C30.932 65.3077 31.8868 64.3651 31.8868 63C31.8868 61.6343 30.932 60.6923 29.5207 60.6923C28.1094 60.6923 27.1547 61.6343 27.1547 63C27.1547 64.3651 28.1094 65.3077 29.5207 65.3077Z" fill="white"/>
<path d="M37 68V54H40V68H37Z" fill="white"/>
<path d="M45 57.6772C43.8542 57.6772 43 56.892 43 55.8386C43 54.7853 43.8542 54 45 54C46.1459 54 47 54.7853 47 55.8386C47 56.892 46.1459 57.6772 45 57.6772ZM43.4375 68V58.5388H46.5625V68H43.4375Z" fill="white"/>
<path d="M51 68C49.8541 68 49 67.3594 49 66.5C49 65.6405 49.8541 65 51 65C52.1459 65 53 65.6405 53 66.5C53 67.3594 52.1459 68 51 68Z" fill="white"/>
<path d="M59.0764 68C56.0993 68 54 65.8845 54 63C54 60.1155 56.0993 58 59.0764 58C61.6908 58 63.5996 59.6345 64 61.9808H61.0993C60.775 61.1919 60.0306 60.6923 59.0764 60.6923C57.7787 60.6923 56.9008 61.6343 56.9008 63C56.9008 64.3651 57.7787 65.3077 59.0764 65.3077C60.0306 65.3077 60.775 64.8075 61.0993 64.0192H64C63.5996 66.3655 61.6908 68 59.0764 68Z" fill="white"/>
<path d="M67 68V54H69.7664V59.3046C70.3195 58.4561 71.094 58.0031 72.0348 58.0031C73.953 58.0031 76 59.3831 76 62.9524V68H73.2336V62.9524C73.2336 61.4143 72.5327 60.7636 71.5 60.7636C70.5041 60.7636 69.7664 61.4539 69.7664 62.9524V68H67Z" fill="white"/>
<path d="M82.5097 68C80.4337 68 78 66.4233 78 63.1151C78 60.0576 80.0754 58 83.0379 58C85.9622 58 88 59.9805 88 63.0958V67.7499H85.3963V66.1732C84.9057 67.3461 83.8492 68 82.5097 68ZM83.0191 65.3077C84.3021 65.3077 85.1698 64.3651 85.1698 63C85.1698 61.6343 84.3021 60.6923 83.0191 60.6923C81.7361 60.6923 80.8678 61.6343 80.8678 63C80.8678 64.3651 81.7361 65.3077 83.0191 65.3077Z" fill="white"/>
<path d="M95.0003 68C92.6236 68 91 66.7228 91 64.0352V55H93.8984V58.3356H98.4204V60.9091H93.8984V64.0352C93.8984 65.0262 94.3623 65.3315 95.0003 65.3315C95.6377 65.3315 96.1016 65.0262 96.1016 64.0352V63.7491H99V64.0352C99 66.7228 97.377 68 95.0003 68Z" fill="white"/>
</svg>