<svg width="197" height="48" viewBox="0 0 197 48" fill="none" xmlns="http://www.w3.org/2000/svg">
<path d="M77.6639 38H73.5138V30.4045C72.6561 31.6656 71.2727 32.3248 69.6403 32.3248C66.5415 32.3248 63 29.9745 63 25.0446C63 20.4873 66.0435 17.4204 70.3873 17.4204C74.5651 17.4204 77.6639 20.258 77.6639 25.0159V38ZM70.3596 28.3121C72.241 28.3121 73.5138 26.9076 73.5138 24.8726C73.5138 22.8376 72.241 21.4331 70.3596 21.4331C68.4782 21.4331 67.2055 22.8376 67.2055 24.8726C67.2055 26.9076 68.4782 28.3121 70.3596 28.3121Z" fill="white"/>
<path d="M87.1373 32.3248C83.0978 32.3248 80.3864 29.9172 80.3864 25.1306V17.793H84.5366V25.1306C84.5366 27.3662 85.5879 28.3121 87.1373 28.3121C88.6867 28.3121 89.7381 27.3662 89.7381 25.1306V17.793H93.8883V25.1306C93.8883 29.8885 91.1768 32.3248 87.1373 32.3248Z" fill="white"/>
<path d="M102.657 32.3248C99.6138 32.3248 96.0446 29.9745 96.0446 25.0446C96.0446 20.4873 99.0881 17.4204 103.432 17.4204C107.72 17.4204 110.709 20.3726 110.709 25.0159V31.9522H106.89V29.6019C106.171 31.3503 104.622 32.3248 102.657 32.3248ZM103.404 28.3121C105.286 28.3121 106.558 26.9076 106.558 24.8726C106.558 22.8376 105.286 21.4331 103.404 21.4331C101.523 21.4331 100.25 22.8376 100.25 24.8726C100.25 26.9076 101.523 28.3121 103.404 28.3121Z" fill="white"/>
<path d="M113.874 31.9522V11.6019H118.024V31.9522H113.874Z" fill="white"/>
<path d="M123.703 16.5032C122.182 16.5032 121.047 15.328 121.047 13.7516C121.047 12.1752 122.182 11 123.703 11C125.225 11 126.359 12.1752 126.359 13.7516C126.359 15.328 125.225 16.5032 123.703 16.5032ZM121.628 31.9522V17.793H125.778V31.9522H121.628Z" fill="white"/>
<path d="M131.264 32.3248C129.742 32.3248 128.608 31.1497 128.608 29.5732C128.608 27.9968 129.742 26.8217 131.264 26.8217C132.786 26.8217 133.92 27.9968 133.92 29.5732C133.92 31.1497 132.786 32.3248 131.264 32.3248Z" fill="white"/>
<path d="M142.825 32.3248C138.509 32.3248 135.466 29.172 135.466 24.8726C135.466 20.5732 138.509 17.4204 142.825 17.4204C146.616 17.4204 149.383 19.8567 149.964 23.3535H145.758C145.288 22.1783 144.209 21.4331 142.825 21.4331C140.944 21.4331 139.671 22.8376 139.671 24.8726C139.671 26.9076 140.944 28.3121 142.825 28.3121C144.209 28.3121 145.288 27.5669 145.758 26.3917H149.964C149.383 29.8885 146.616 32.3248 142.825 32.3248Z" fill="white"/>
<path d="M152.511 31.9522V11.6019H156.661V19.3121C157.492 18.0796 158.654 17.4204 160.065 17.4204C162.942 17.4204 166.013 19.4268 166.013 24.6146V31.9522H161.863V24.6146C161.863 22.379 160.812 21.4331 159.262 21.4331C157.768 21.4331 156.661 22.4363 156.661 24.6146V31.9522H152.511Z" fill="white"/>
<path d="M174.772 32.3248C171.728 32.3248 168.159 29.9745 168.159 25.0446C168.159 20.4873 171.203 17.4204 175.546 17.4204C179.835 17.4204 182.823 20.3726 182.823 25.0159V31.9522H179.005V29.6019C178.286 31.3503 176.736 32.3248 174.772 32.3248ZM175.519 28.3121C177.4 28.3121 178.673 26.9076 178.673 24.8726C178.673 22.8376 177.4 21.4331 175.519 21.4331C173.637 21.4331 172.365 22.8376 172.365 24.8726C172.365 26.9076 173.637 28.3121 175.519 28.3121Z" fill="white"/>
<path d="M191.273 32.3248C187.87 32.3248 185.546 30.4045 185.546 26.3631V12.7771H189.696V17.793H196.17V21.6624H189.696V26.3631C189.696 27.8535 190.36 28.3121 191.273 28.3121C192.186 28.3121 192.85 27.8535 192.85 26.3631V25.9331H197V26.3631C197 30.4045 194.676 32.3248 191.273 32.3248Z" fill="white"/>
<path d="M30.698 39.0212C30.311 39.1906 29.9633 39.3437 29.6152 39.4954C28.251 40.0891 26.87 40.6362 25.4256 41.0072C23.2336 41.5702 21.0195 41.7469 18.7631 41.4781C16.6575 41.2275 14.6489 40.6535 12.6984 39.8424C9.86868 38.6651 7.37318 36.9987 5.28583 34.7487C3.62488 32.9585 2.37977 30.9024 1.47847 28.6351C0.76252 26.8348 0.254488 24.9837 0.0859446 23.0485C-0.0657928 21.3039 -0.0254576 19.5641 0.278017 17.8363C0.811499 14.7972 1.94761 11.9972 3.68347 9.45011C4.95835 7.57974 6.52614 5.98103 8.32106 4.59638C10.1602 3.17813 12.1616 2.05697 14.3363 1.25929C16.9879 0.286434 19.7259 -0.159439 22.5594 0.0512591C24.5896 0.202443 26.5459 0.644476 28.396 1.50071C30.7465 2.58875 32.9088 3.97772 34.8929 5.64075C35.848 6.4413 36.6138 7.41608 37.3889 8.38702C38.4625 9.73184 39.3869 11.1659 40.1259 12.7152C40.8327 14.1978 41.4795 15.7149 41.7187 17.3496C41.8862 18.4928 41.9727 19.6567 41.9852 20.8124C42.0173 23.8193 41.9876 26.8271 41.9852 29.8345C41.9818 33.9054 41.9842 37.9769 41.978 42.0478C41.9756 43.6345 41.4781 45.0643 40.5446 46.34C39.8104 47.3435 38.7545 47.7913 37.5656 47.9377C36.3325 48.0894 35.1234 47.9804 33.9824 47.429C32.8612 46.8871 32.08 46.0194 31.5431 44.9126C30.8848 43.5553 30.7066 42.1044 30.6985 40.6195C30.6956 40.1016 30.698 38.5174 30.698 37.9539V39.0212ZM30.698 37.9539L30.7628 34.4204C30.7854 29.8379 30.7888 25.2553 30.796 20.6728C30.7974 19.8492 30.796 19.0256 30.5866 18.2183C30.1871 16.6781 29.5408 15.2561 28.4575 14.0792C27.6229 13.1721 26.5963 12.4891 25.501 11.9334C24.871 11.6137 24.2141 11.3013 23.5327 11.1362C21.1789 10.5655 18.8918 10.8213 16.6657 11.7884C14.0203 12.9374 12.3498 14.9225 11.4768 17.6337C11.037 18.9997 10.8833 20.3906 10.9933 21.8213C11.1503 23.8601 11.92 25.6282 13.2919 27.1329C14.4467 28.3995 15.4026 29.1319 16.9915 29.7822C18.7422 30.4993 21.4512 30.2449 23.2956 29.7822L30.698 37.9539Z" fill="white"/>
</svg>
